<svg xmlns="http://www.w3.org/2000/svg" viewBox="0 0 64 64" fill="none">
  <defs>
    <linearGradient id="g" x1="32" y1="4" x2="32" y2="60" gradientUnits="userSpaceOnUse">
      <stop offset="0" stop-color="#38bdf8"/>
      <stop offset="1" stop-color="#22c55e"/>
    </linearGradient>
    <linearGradient id="trail" x1="20" y1="40" x2="44" y2="24" gradientUnits="userSpaceOnUse">
      <stop offset="0" stop-color="#facc15"/>
      <stop offset="1" stop-color="#f97316"/>
    </linearGradient>
  </defs>
  <rect x="4" y="4" width="56" height="56" rx="14" fill="#0f172a"/>
  <path d="M32 12c-9 0-16 7.163-16 16 0 11.5 16 24 16 24s16-12.5 16-24c0-8.837-7-16-16-16zm0 22a6 6 0 1 1 0-12 6 6 0 0 1 0 12z" fill="url(#g)"/>
  <path d="M18 44c4-6 10-10 14-10s10 4 14 10" stroke="url(#trail)" stroke-width="4" stroke-linecap="round" stroke-linejoin="round"/>
</svg>
